<svg id="visual" viewBox="0 0 900 600" width="900" height="600" xmlns="http://www.w3.org/2000/svg" xmlns:xlink="http://www.w3.org/1999/xlink" version="1.1"><rect x="0" y="0" width="900" height="600" fill="#242424"></rect><path d="M0 438L21.5 428.5C43 419 86 400 128.8 392.8C171.7 385.7 214.3 390.3 257.2 409C300 427.7 343 460.3 385.8 474.2C428.7 488 471.3 483 514.2 484.3C557 485.7 600 493.3 642.8 476.5C685.7 459.7 728.3 418.3 771.2 408.3C814 398.3 857 419.7 878.5 430.3L900 441L900 601L878.5 601C857 601 814 601 771.2 601C728.3 601 685.7 601 642.8 601C600 601 557 601 514.2 601C471.3 601 428.7 601 385.8 601C343 601 300 601 257.2 601C214.3 601 171.7 601 128.8 601C86 601 43 601 21.5 601L0 601Z" fill="#04914E" stroke-linecap="round" stroke-linejoin="miter"></path></svg>