<svg id="visual" viewBox="0 0 900 600" width="900" height="600" xmlns="http://www.w3.org/2000/svg" xmlns:xlink="http://www.w3.org/1999/xlink" version="1.1"><path d="M0 91L82 91L164 97L245 79L327 67L409 103L491 61L573 37L655 49L736 61L818 79L900 103L900 0L818 0L736 0L655 0L573 0L491 0L409 0L327 0L245 0L164 0L82 0L0 0Z" fill="#242424"></path><path d="M0 145L82 193L164 217L245 235L327 211L409 205L491 151L573 127L655 151L736 133L818 199L900 163L900 101L818 77L736 59L655 47L573 35L491 59L409 101L327 65L245 77L164 95L82 89L0 89Z" fill="#26673e"></path><path d="M0 427L82 319L164 391L245 373L327 319L409 289L491 397L573 409L655 427L736 451L818 415L900 301L900 161L818 197L736 131L655 149L573 125L491 149L409 203L327 209L245 233L164 215L82 191L0 143Z" fill="#04924e"></path><path d="M0 493L82 421L164 505L245 451L327 367L409 385L491 457L573 451L655 487L736 493L818 523L900 349L900 299L818 413L736 449L655 425L573 407L491 395L409 287L327 317L245 371L164 389L82 317L0 425Z" fill="#26673e"></path><path d="M0 601L82 601L164 601L245 601L327 601L409 601L491 601L573 601L655 601L736 601L818 601L900 601L900 347L818 521L736 491L655 485L573 449L491 455L409 383L327 365L245 449L164 503L82 419L0 491Z" fill="#242424"></path></svg>