<svg id="visual" viewBox="0 0 675 1000" width="675" height="1000" xmlns="http://www.w3.org/2000/svg" xmlns:xlink="http://www.w3.org/1999/xlink" version="1.1"><rect x="0" y="0" width="675" height="1000" fill="#44136E"></rect><defs><linearGradient id="grad1_0" x1="0%" y1="100%" x2="100%" y2="0%"><stop offset="30%" stop-color="#44136e" stop-opacity="1"></stop><stop offset="70%" stop-color="#44136e" stop-opacity="1"></stop></linearGradient></defs><defs><linearGradient id="grad2_0" x1="0%" y1="100%" x2="100%" y2="0%"><stop offset="30%" stop-color="#44136e" stop-opacity="1"></stop><stop offset="70%" stop-color="#44136e" stop-opacity="1"></stop></linearGradient></defs><g transform="translate(675, 1000)"><path d="M-603.2 0C-584.6 -38.5 -566 -77.1 -542.4 -107.9C-518.8 -138.7 -490.2 -161.7 -486 -201.3C-481.7 -240.9 -501.7 -296.9 -472.3 -315.6C-442.9 -334.2 -364 -315.4 -327.4 -327.4C-290.8 -339.4 -296.4 -382.2 -290 -434C-283.6 -485.9 -265.2 -546.7 -230.9 -557.3C-196.5 -568 -146.1 -528.4 -105 -527.7C-63.8 -526.9 -31.9 -565.1 0 -603.2L0 0Z" fill="#120E1E"></path></g><g transform="translate(0, 0)"><path d="M603.2 0C574.6 34.3 546 68.5 535.5 106.5C525 144.5 532.6 186.3 508.1 210.5C483.6 234.7 427.1 241.3 404.9 270.6C382.8 299.8 395.1 351.7 380.4 380.4C365.7 409.2 323.9 414.8 297.2 444.8C270.5 474.9 258.9 529.5 230.9 557.3C202.8 585.2 158.5 586.3 117.2 589.5C76 592.6 38 597.9 0 603.2L0 0Z" fill="#120E1E"></path></g></svg>