<svg id="visual" viewBox="0 0 900 600" width="900" height="600" xmlns="http://www.w3.org/2000/svg" xmlns:xlink="http://www.w3.org/1999/xlink" version="1.1"><rect x="0" y="0" width="900" height="600" fill="#2A2E37"></rect><defs><linearGradient id="grad1_0" x1="33.3%" y1="0%" x2="100%" y2="100%"><stop offset="20%" stop-color="#793ef9" stop-opacity="1"></stop><stop offset="80%" stop-color="#793ef9" stop-opacity="1"></stop></linearGradient></defs><defs><linearGradient id="grad1_1" x1="33.3%" y1="0%" x2="100%" y2="100%"><stop offset="20%" stop-color="#793ef9" stop-opacity="1"></stop><stop offset="80%" stop-color="#4c47d8" stop-opacity="1"></stop></linearGradient></defs><defs><linearGradient id="grad1_2" x1="33.3%" y1="0%" x2="100%" y2="100%"><stop offset="20%" stop-color="#2a47b2" stop-opacity="1"></stop><stop offset="80%" stop-color="#4c47d8" stop-opacity="1"></stop></linearGradient></defs><defs><linearGradient id="grad1_3" x1="33.3%" y1="0%" x2="100%" y2="100%"><stop offset="20%" stop-color="#2a47b2" stop-opacity="1"></stop><stop offset="80%" stop-color="#1f418a" stop-opacity="1"></stop></linearGradient></defs><defs><linearGradient id="grad1_4" x1="33.3%" y1="0%" x2="100%" y2="100%"><stop offset="20%" stop-color="#253960" stop-opacity="1"></stop><stop offset="80%" stop-color="#1f418a" stop-opacity="1"></stop></linearGradient></defs><defs><linearGradient id="grad1_5" x1="33.3%" y1="0%" x2="100%" y2="100%"><stop offset="20%" stop-color="#253960" stop-opacity="1"></stop><stop offset="80%" stop-color="#2a2e37" stop-opacity="1"></stop></linearGradient></defs><defs><linearGradient id="grad2_0" x1="0%" y1="0%" x2="66.7%" y2="100%"><stop offset="20%" stop-color="#793ef9" stop-opacity="1"></stop><stop offset="80%" stop-color="#793ef9" stop-opacity="1"></stop></linearGradient></defs><defs><linearGradient id="grad2_1" x1="0%" y1="0%" x2="66.7%" y2="100%"><stop offset="20%" stop-color="#4c47d8" stop-opacity="1"></stop><stop offset="80%" stop-color="#793ef9" stop-opacity="1"></stop></linearGradient></defs><defs><linearGradient id="grad2_2" x1="0%" y1="0%" x2="66.7%" y2="100%"><stop offset="20%" stop-color="#4c47d8" stop-opacity="1"></stop><stop offset="80%" stop-color="#2a47b2" stop-opacity="1"></stop></linearGradient></defs><defs><linearGradient id="grad2_3" x1="0%" y1="0%" x2="66.7%" y2="100%"><stop offset="20%" stop-color="#1f418a" stop-opacity="1"></stop><stop offset="80%" stop-color="#2a47b2" stop-opacity="1"></stop></linearGradient></defs><defs><linearGradient id="grad2_4" x1="0%" y1="0%" x2="66.7%" y2="100%"><stop offset="20%" stop-color="#1f418a" stop-opacity="1"></stop><stop offset="80%" stop-color="#253960" stop-opacity="1"></stop></linearGradient></defs><defs><linearGradient id="grad2_5" x1="0%" y1="0%" x2="66.7%" y2="100%"><stop offset="20%" stop-color="#2a2e37" stop-opacity="1"></stop><stop offset="80%" stop-color="#253960" stop-opacity="1"></stop></linearGradient></defs><g transform="translate(900, 0)"><path d="M0 486.7C-44.2 431.1 -88.3 375.4 -103.5 318.6C-118.7 261.8 -104.9 204 -146.9 202.3C-189 200.5 -286.9 254.7 -351.1 255.1C-415.3 255.5 -445.9 201.9 -462.9 150.4C-479.9 98.9 -483.3 49.5 -486.7 0L0 0Z" fill="#28334b"></path><path d="M0 405.6C-36.8 359.2 -73.6 312.8 -86.3 265.5C-98.9 218.2 -87.4 170 -122.5 168.5C-157.5 167.1 -239.1 212.3 -292.6 212.6C-346.1 212.9 -371.6 168.3 -385.8 125.3C-399.9 82.4 -402.8 41.2 -405.6 0L0 0Z" fill="#213d75"></path><path d="M0 324.5C-29.4 287.4 -58.9 250.2 -69 212.4C-79.1 174.6 -69.9 136 -98 134.8C-126 133.7 -191.3 169.8 -234.1 170.1C-276.9 170.3 -297.3 134.6 -308.6 100.3C-319.9 65.9 -322.2 33 -324.5 0L0 0Z" fill="#22459e"></path><path d="M0 243.4C-22.1 215.5 -44.2 187.7 -51.8 159.3C-59.4 130.9 -52.5 102 -73.5 101.1C-94.5 100.2 -143.4 127.4 -175.6 127.5C-207.7 127.7 -223 101 -231.5 75.2C-240 49.5 -241.7 24.7 -243.4 0L0 0Z" fill="#3948c5"></path><path d="M0 162.2C-14.7 143.7 -29.4 125.1 -34.5 106.2C-39.6 87.3 -35 68 -49 67.4C-63 66.8 -95.6 84.9 -117 85C-138.4 85.2 -148.6 67.3 -154.3 50.1C-160 33 -161.1 16.5 -162.2 0L0 0Z" fill="#6144e9"></path><path d="M0 81.1C-7.4 71.8 -14.7 62.6 -17.3 53.1C-19.8 43.6 -17.5 34 -24.5 33.7C-31.5 33.4 -47.8 42.5 -58.5 42.5C-69.2 42.6 -74.3 33.7 -77.2 25.1C-80 16.5 -80.6 8.2 -81.1 0L0 0Z" fill="#793ef9"></path></g><g transform="translate(0, 600)"><path d="M0 -486.7C59.6 -494.7 119.1 -502.6 150.4 -462.9C181.7 -423.3 184.6 -336 218.1 -300.1C251.5 -264.3 315.4 -279.9 362.4 -263.3C409.5 -246.7 439.6 -197.9 457.5 -148.6C475.4 -99.4 481.1 -49.7 486.7 0L0 0Z" fill="#28334b"></path><path d="M0 -405.6C49.6 -412.2 99.3 -418.8 125.3 -385.8C151.4 -352.7 153.9 -280 181.7 -250.1C209.6 -220.3 262.9 -233.3 302 -219.4C341.2 -205.6 366.3 -164.9 381.2 -123.9C396.1 -82.8 400.9 -41.4 405.6 0L0 0Z" fill="#213d75"></path><path d="M0 -324.5C39.7 -329.8 79.4 -335.1 100.3 -308.6C121.1 -282.2 123.1 -224 145.4 -200.1C167.7 -176.2 210.3 -186.6 241.6 -175.6C273 -164.5 293 -131.9 305 -99.1C316.9 -66.3 320.7 -33.1 324.5 0L0 0Z" fill="#22459e"></path><path d="M0 -243.4C29.8 -247.3 59.6 -251.3 75.2 -231.5C90.8 -211.6 92.3 -168 109 -150.1C125.8 -132.2 157.7 -140 181.2 -131.7C204.7 -123.4 219.8 -98.9 228.7 -74.3C237.7 -49.7 240.5 -24.8 243.4 0L0 0Z" fill="#3948c5"></path><path d="M0 -162.2C19.9 -164.9 39.7 -167.5 50.1 -154.3C60.6 -141.1 61.5 -112 72.7 -100C83.8 -88.1 105.1 -93.3 120.8 -87.8C136.5 -82.2 146.5 -66 152.5 -49.5C158.5 -33.1 160.4 -16.6 162.2 0L0 0Z" fill="#6144e9"></path><path d="M0 -81.1C9.9 -82.4 19.9 -83.8 25.1 -77.2C30.3 -70.5 30.8 -56 36.3 -50C41.9 -44.1 52.6 -46.7 60.4 -43.9C68.2 -41.1 73.3 -33 76.2 -24.8C79.2 -16.6 80.2 -8.3 81.1 0L0 0Z" fill="#793ef9"></path></g></svg>