<svg id="visual" viewBox="0 0 900 600" width="900" height="600" xmlns="http://www.w3.org/2000/svg" xmlns:xlink="http://www.w3.org/1999/xlink" version="1.1"><rect x="0" y="0" width="900" height="600" fill="#000000"></rect><path d="M0 192L11.5 202.8C23 213.7 46 235.3 69 275.2C92 315 115 373 138.2 376C161.3 379 184.7 327 207.8 328.5C231 330 254 385 277 389.8C300 394.7 323 349.3 346 340.5C369 331.7 392 359.3 415.2 361.7C438.3 364 461.7 341 484.8 307.7C508 274.3 531 230.7 554 215.5C577 200.3 600 213.7 623 236.3C646 259 669 291 692.2 311.3C715.3 331.7 738.7 340.3 761.8 357.2C785 374 808 399 831 374.3C854 349.7 877 275.3 888.5 238.2L900 201L900 0L888.5 0C877 0 854 0 831 0C808 0 785 0 761.8 0C738.7 0 715.3 0 692.2 0C669 0 646 0 623 0C600 0 577 0 554 0C531 0 508 0 484.8 0C461.7 0 438.3 0 415.2 0C392 0 369 0 346 0C323 0 300 0 277 0C254 0 231 0 207.8 0C184.7 0 161.3 0 138.2 0C115 0 92 0 69 0C46 0 23 0 11.5 0L0 0Z" fill="#FFC760" stroke-linecap="round" stroke-linejoin="miter"></path></svg>